<svg
  xmlns="http://www.w3.org/2000/svg"
  viewBox="0 0 24 24"
  width="100"
  height="100"
>
  <defs>
    <linearGradient id="instagramGradient" x1="0%" y1="0%" x2="100%" y2="100%">
      <stop offset="0%" style="stop-color:#FFD700; stop-opacity:1" />
      <stop offset="25%" style="stop-color:#FF7E00; stop-opacity:1" />
      <stop offset="50%" style="stop-color:#E1306C; stop-opacity:1" />
      <stop offset="75%" style="stop-color:#833AB4; stop-opacity:1" />
      <stop offset="100%" style="stop-color:#405DE6; stop-opacity:1" />
    </linearGradient>
  </defs>
  <path
    fill="url(#instagramGradient)"
    d="M7.75 2h8.5C19.44 2 22 4.56 22 7.75v8.5C22 19.44 19.44 22 16.25 22h-8.5C4.56 22 2 19.44 2 16.25v-8.5C2 4.56 4.56 2 7.75 2zm0 2C5.68 4 4 5.68 4 7.75v8.5C4 18.32 5.68 20 7.75 20h8.5C18.32 20 20 18.32 20 16.25v-8.5C20 5.68 18.32 4 16.25 4h-8.5zm4.25 3.75a5.25 5.25 0 110 10.5 5.25 5.25 0 010-10.5zm0 2a3.25 3.25 0 100 6.5 3.25 3.25 0 000-6.5zm5.37-.87a.88.88 0 11-1.75 0 .88.88 0 011.75 0z"
  />
</svg>
